<svg width="20" height="17" viewBox="0 0 20 17" fill="none" xmlns="http://www.w3.org/2000/svg">
<path d="M19.25 3.57692V13.2692C19.25 13.8201 19.0312 14.3483 18.6417 14.7378C18.2522 15.1273 17.7239 15.3462 17.1731 15.3462H3.32692C2.77609 15.3462 2.24782 15.1273 1.85832 14.7378C1.46882 14.3483 1.25 13.8201 1.25 13.2692V3.57692M19.25 3.57692C19.25 3.02609 19.0312 2.49782 18.6417 2.10832C18.2522 1.71882 17.7239 1.5 17.1731 1.5H3.32692C2.77609 1.5 2.24782 1.71882 1.85832 2.10832C1.46882 2.49782 1.25 3.02609 1.25 3.57692M19.25 3.57692V3.80123C19.25 4.15583 19.1593 4.50453 18.9864 4.81412C18.8135 5.12371 18.5642 5.38388 18.2623 5.56985L11.3392 9.82985C11.0117 10.0316 10.6346 10.1384 10.25 10.1384C9.86536 10.1384 9.48827 10.0316 9.16077 9.82985L2.23769 5.57077C1.93577 5.3848 1.68649 5.12463 1.5136 4.81504C1.34071 4.50545 1.24996 4.15675 1.25 3.80215V3.57692" stroke="white" stroke-width="1.5" stroke-linecap="round" stroke-linejoin="round"/>
</svg>
